<svg width="57" height="61" viewBox="0 0 57 61" fill="none" xmlns="http://www.w3.org/2000/svg">
<path d="M49.9106 46.0258C50.8341 44.8735 52.4554 44.4645 53.7343 45.2026C55.0929 45.9866 55.5365 47.7515 54.5798 48.9945C49.0142 56.2258 40.2738 60.8867 30.4434 60.8867C13.6301 60.8867 0.000117519 47.2565 0 30.4434C0 13.6301 13.6301 0 30.4434 0C41.1103 7.45544e-05 50.4948 5.48706 55.9312 13.7919C56.743 15.032 56.2694 16.6668 54.9858 17.4079C53.6372 18.1864 51.9228 17.6777 51.0443 16.392C46.5541 9.82058 39.0029 5.50691 30.4434 5.50684C16.6717 5.50684 5.50684 16.6717 5.50684 30.4434C5.50696 44.2149 16.6718 55.3789 30.4434 55.3789C38.3188 55.3788 45.3409 51.7275 49.9106 46.0258Z" fill="black"/>
<path d="M30.2903 10.7086C37.0999 10.7087 43.1095 14.1318 46.694 19.3506C47.4747 20.4874 47.0201 22.0063 45.8258 22.6959C44.537 23.44 42.9013 22.9244 42.003 21.738C39.322 18.1975 35.0738 15.9099 30.2903 15.9098C22.1794 15.9098 15.6038 22.4854 15.6038 30.5963C15.6039 38.7072 22.1795 45.2819 30.2903 45.2819C34.5102 45.2818 38.3134 43.5016 40.9918 40.6517C41.9392 39.6436 43.4523 39.2655 44.6503 39.9573C45.9473 40.7061 46.3657 42.4005 45.3908 43.5372C41.7435 47.7895 36.3317 50.484 30.2903 50.484C19.3069 50.484 10.4028 41.5798 10.4026 30.5963C10.4026 19.6128 19.3068 10.7086 30.2903 10.7086Z" fill="black"/>
<circle cx="30.4431" cy="30.4431" r="9.63778" fill="black"/>
<path d="M30.2903 10.7086C37.0999 10.7087 43.1095 14.1318 46.694 19.3506C47.4747 20.4874 47.0201 22.0063 45.8258 22.6959C44.537 23.44 42.9013 22.9244 42.003 21.738C39.322 18.1975 35.0738 15.9099 30.2903 15.9098C22.1794 15.9098 15.6038 22.4854 15.6038 30.5963C15.6039 38.7072 22.1795 45.2819 30.2903 45.2819C34.5102 45.2818 38.3134 43.5016 40.9918 40.6517C41.9392 39.6436 43.4523 39.2655 44.6503 39.9573C45.9473 40.7061 46.3657 42.4005 45.3908 43.5372C41.7435 47.7895 36.3317 50.484 30.2903 50.484C19.3069 50.484 10.4028 41.5798 10.4026 30.5963C10.4026 19.6128 19.3068 10.7086 30.2903 10.7086Z" fill="black"/>
<circle cx="30.4431" cy="30.4431" r="9.63778" fill="black"/>
<path d="M5.07617 60.8244H0V30.4582H5.07617V60.8244Z" fill="black"/>
</svg>
